0
SECTION
2
HEADER
9
$INSUNITS
70
4
9
$ACADVER
1
AC1014
9
$HANDSEED
5
FFFF
0
ENDSEC
0
SECTION
2
TABLES
0
TABLE
2
VPORT
5
8
100
AcDbSymbolTable
0
ENDTAB
0
TABLE
2
LTYPE
5
5
100
AcDbSymbolTable
0
LTYPE
5
14
100
AcDbSymbolTableRecord
100
AcDbLinetypeTableRecord
2
BYBLOCK
70
0
0
LTYPE
5
15
100
AcDbSymbolTableRecord
100
AcDbLinetypeTableRecord
2
BYLAYER
70
0
0
ENDTAB
0
TABLE
2
LAYER
5
2
100
AcDbSymbolTable
70
2
0
LAYER
5
50
100
AcDbSymbolTableRecord
100
AcDbLayerTableRecord
2
0
70
0
6
CONTINUOUS
0
ENDTAB
0
TABLE
2
STYLE
5
3
100
AcDbSymbolTable
70
1
0
STYLE
5
11
100
AcDbSymbolTableRecord
100
AcDbTextStyleTableRecord
2
STANDARD
70
0
0
ENDTAB
0
TABLE
2
VIEW
5
6
100
AcDbSymbolTable
70
0
0
ENDTAB
0
TABLE
2
UCS
5
7
100
AcDbSymbolTable
70
0
0
ENDTAB
0
TABLE
2
APPID
5
9
100
AcDbSymbolTable
70
2
0
APPID
5
12
100
AcDbSymbolTableRecord
100
AcDbRegAppTableRecord
2
ACAD
70
0
0
ENDTAB
0
TABLE
2
DIMSTYLE
5
A
100
AcDbSymbolTable
70
1
0
ENDTAB
0
TABLE
2
BLOCK_RECORD
5
1
100
AcDbSymbolTable
70
1
0
BLOCK_RECORD
5
1F
100
AcDbSymbolTableRecord
100
AcDbBlockTableRecord
2
*MODEL_SPACE
0
BLOCK_RECORD
5
1B
100
AcDbSymbolTableRecord
100
AcDbBlockTableRecord
2
*PAPER_SPACE
0
ENDTAB
0
ENDSEC
0
SECTION
2
BLOCKS
0
BLOCK
5
20
100
AcDbEntity
100
AcDbBlockBegin
2
*MODEL_SPACE
0
ENDBLK
5
21
100
AcDbEntity
100
AcDbBlockEnd
0
BLOCK
5
1C
100
AcDbEntity
100
AcDbBlockBegin
2
*PAPER_SPACE
0
ENDBLK
5
1D
100
AcDbEntity
100
AcDbBlockEnd
0
ENDSEC
0
SECTION
2
ENTITIES
0
SPLINE
5
100
100
AcDbEntity
8
0
100
AcDbSpline
70
1064
71
5
72
16
73
10
74
0
42
0.000000001
43
0.0000000001
44
0.0000000001
40
0
40
0
40
0
40
0
40
0
40
0
40
0.20000000000000001
40
0.40000000000000002
40
0.60000000000000009
40
0.80000000000000004
40
1
40
1
40
1
40
1
40
1
40
1
10
-148.81462306382318
20
18.098060674612988
30
0
10
-151.67488276688297
20
16.348626709628146
30
0
10
-156.59691720144639
20
12.771024089767787
30
0
10
-161.58665347142372
20
7.168636714835972
30
0
10
-164.09999396396728
20
-0.7010291827285684
30
0
10
-162.55484215048622
20
-10.931825837428846
30
0
10
-158.87998729538791
20
-19.236373093846101
30
0
10
-155.09884024762033
20
-25.455142699990493
30
0
10
-152.13333693767262
20
-29.587049594301448
30
0
10
-150.53934224987819
20
-31.649510555582907
30
0
0
SPLINE
5
101
100
AcDbEntity
8
0
100
AcDbSpline
70
1064
71
5
72
16
73
10
74
0
42
0.000000001
43
0.0000000001
44
0.0000000001
40
0
40
0
40
0
40
0
40
0
40
0
40
0.20000000000000001
40
0.40000000000000002
40
0.60000000000000009
40
0.80000000000000004
40
1
40
1
40
1
40
1
40
1
40
1
10
-150.53934224987819
20
-31.649510555582907
30
0
10
-149.79200100084222
20
-32.616491288137773
30
0
10
-148.00730200818421
20
-34.746971669341249
30
0
10
-144.46091208093787
20
-38.531424466959962
30
0
10
-138.16895670520461
20
-44.337796417326196
30
0
10
-128.11234652830058
20
-50.637644015495155
30
0
10
-118.31911501690499
20
-52.557480536095099
30
0
10
-109.81016610050273
20
-50.833324304789983
30
0
10
-103.56270435997848
20
-48.00998646024005
30
0
10
-100.295149425898
20
-46.17944440453158
30
0
0
ARC
5
102
100
AcDbEntity
8
0
100
AcDbCircle
10
2.6645352591003757e-14
20
-225.20833333333348
30
0
40
205.20833333333417
100
AcDbArc
50
60.741679764721923
51
119.25832023527813
0
SPLINE
5
103
100
AcDbEntity
8
0
100
AcDbSpline
70
1064
71
5
72
16
73
10
74
0
42
0.000000001
43
0.0000000001
44
0.0000000001
40
-1
40
-1
40
-1
40
-1
40
-1
40
-1
40
-0.80000000000000004
40
-0.60000000000000009
40
-0.40000000000000002
40
-0.20000000000000001
40
-0
40
-0
40
-0
40
-0
40
-0
40
-0
10
100.29514942589797
20
-46.179444404531566
30
0
10
103.56270435997844
20
-48.009986460240029
30
0
10
109.81016610050253
20
-50.833324304789961
30
0
10
118.31911501690388
20
-52.557480536095021
30
0
10
128.11234652829731
20
-50.637644015495098
30
0
10
138.16895670520026
20
-44.337796417326132
30
0
10
144.46091208093475
20
-38.531424466959962
30
0
10
148.00730200818364
20
-34.746971669341221
30
0
10
149.79200100084219
20
-32.616491288137752
30
0
10
150.53934224987816
20
-31.649510555582889
30
0
0
SPLINE
5
104
100
AcDbEntity
8
0
100
AcDbSpline
70
1064
71
5
72
16
73
10
74
0
42
0.000000001
43
0.0000000001
44
0.0000000001
40
-1
40
-1
40
-1
40
-1
40
-1
40
-1
40
-0.80000000000000004
40
-0.60000000000000009
40
-0.40000000000000002
40
-0.20000000000000001
40
-0
40
-0
40
-0
40
-0
40
-0
40
-0
10
150.53934224987816
20
-31.649510555582889
30
0
10
152.1333369376726
20
-29.58704959430143
30
0
10
155.0988402476203
20
-25.455142699990493
30
0
10
158.87998729538779
20
-19.236373093846172
30
0
10
162.55484215048514
20
-10.931825837429068
30
0
10
164.09999396396546
20
-0.70102918272886894
30
0
10
161.58665347142218
20
7.1686367148357641
30
0
10
156.59691720144605
20
12.771024089767767
30
0
10
151.67488276688294
20
16.348626709628164
30
0
10
148.81462306382315
20
18.098060674613006
30
0
0
ARC
5
105
100
AcDbEntity
8
0
100
AcDbCircle
10
2.6645352591003757e-14
20
-225.20833333333348
30
0
40
285.20833333333348
100
AcDbArc
50
58.548598944852834
51
121.45140105514717
0
ENDSEC
0
SECTION
2
OBJECTS
0
DICTIONARY
5
C
100
AcDbDictionary
3
ACAD_GROUP
350
D
3
ACAD_MLINESTYLE
350
17
0
DICTIONARY
5
D
100
AcDbDictionary
0
DICTIONARY
5
1A
330
C
100
AcDbDictionary
0
DICTIONARY
5
17
100
AcDbDictionary
0
ENDSEC
0
EOF
