0
SECTION
2
HEADER
9
$INSUNITS
70
4
9
$ACADVER
1
AC1014
9
$HANDSEED
5
FFFF
0
ENDSEC
0
SECTION
2
TABLES
0
TABLE
2
VPORT
5
8
100
AcDbSymbolTable
0
ENDTAB
0
TABLE
2
LTYPE
5
5
100
AcDbSymbolTable
0
LTYPE
5
14
100
AcDbSymbolTableRecord
100
AcDbLinetypeTableRecord
2
BYBLOCK
70
0
0
LTYPE
5
15
100
AcDbSymbolTableRecord
100
AcDbLinetypeTableRecord
2
BYLAYER
70
0
0
ENDTAB
0
TABLE
2
LAYER
5
2
100
AcDbSymbolTable
70
2
0
LAYER
5
50
100
AcDbSymbolTableRecord
100
AcDbLayerTableRecord
2
0
70
0
6
CONTINUOUS
0
ENDTAB
0
TABLE
2
STYLE
5
3
100
AcDbSymbolTable
70
1
0
STYLE
5
11
100
AcDbSymbolTableRecord
100
AcDbTextStyleTableRecord
2
STANDARD
70
0
0
ENDTAB
0
TABLE
2
VIEW
5
6
100
AcDbSymbolTable
70
0
0
ENDTAB
0
TABLE
2
UCS
5
7
100
AcDbSymbolTable
70
0
0
ENDTAB
0
TABLE
2
APPID
5
9
100
AcDbSymbolTable
70
2
0
APPID
5
12
100
AcDbSymbolTableRecord
100
AcDbRegAppTableRecord
2
ACAD
70
0
0
ENDTAB
0
TABLE
2
DIMSTYLE
5
A
100
AcDbSymbolTable
70
1
0
ENDTAB
0
TABLE
2
BLOCK_RECORD
5
1
100
AcDbSymbolTable
70
1
0
BLOCK_RECORD
5
1F
100
AcDbSymbolTableRecord
100
AcDbBlockTableRecord
2
*MODEL_SPACE
0
BLOCK_RECORD
5
1B
100
AcDbSymbolTableRecord
100
AcDbBlockTableRecord
2
*PAPER_SPACE
0
ENDTAB
0
ENDSEC
0
SECTION
2
BLOCKS
0
BLOCK
5
20
100
AcDbEntity
100
AcDbBlockBegin
2
*MODEL_SPACE
0
ENDBLK
5
21
100
AcDbEntity
100
AcDbBlockEnd
0
BLOCK
5
1C
100
AcDbEntity
100
AcDbBlockBegin
2
*PAPER_SPACE
0
ENDBLK
5
1D
100
AcDbEntity
100
AcDbBlockEnd
0
ENDSEC
0
SECTION
2
ENTITIES
0
SPLINE
5
100
100
AcDbEntity
8
0
100
AcDbSpline
70
1064
71
5
72
16
73
10
74
0
42
0.000000001
43
0.0000000001
44
0.0000000001
40
-1
40
-1
40
-1
40
-1
40
-1
40
-1
40
-0.80000000000000004
40
-0.60000000000000009
40
-0.40000000000000002
40
-0.20000000000000001
40
-0
40
-0
40
-0
40
-0
40
-0
40
-0
10
150.53934224987816
20
-31.649510555582889
30
0
10
152.1333369376726
20
-29.58704959430143
30
0
10
155.0988402476203
20
-25.455142699990493
30
0
10
158.87998729538779
20
-19.236373093846172
30
0
10
162.55484215048514
20
-10.931825837429068
30
0
10
164.09999396396546
20
-0.70102918272886894
30
0
10
161.58665347142218
20
7.1686367148357641
30
0
10
156.59691720144605
20
12.771024089767767
30
0
10
151.67488276688294
20
16.348626709628164
30
0
10
148.81462306382315
20
18.098060674613006
30
0
0
ARC
5
101
100
AcDbEntity
8
0
100
AcDbCircle
10
0
20
-225.20833333333337
30
0
40
285.20833333333337
100
AcDbArc
50
58.548598944852827
51
89.396446070235456
0
LINE
5
102
100
AcDbEntity
8
0
100
AcDbLine
10
3.0043299576136739
20
59.984176042848496
30
0
11
3.0043299576136917
21
47.791666561457085
31
0
0
LINE
5
103
100
AcDbEntity
8
0
100
AcDbLine
10
3.0043299576136917
20
47.791666561457085
30
0
11
12.992532667815784
21
47.791666561457085
31
0
0
LINE
5
104
100
AcDbEntity
8
0
100
AcDbLine
10
12.992532667815784
20
47.791666561457085
30
0
11
12.992532667815784
21
39.472973325969178
31
0
0
ARC
5
105
100
AcDbEntity
8
0
100
AcDbCircle
10
0
20
-225.20833333333337
30
0
40
264.99999999999994
100
AcDbArc
50
59.116913717506158
51
87.189751521438637
0
LINE
5
106
100
AcDbEntity
8
0
100
AcDbLine
10
136.02130115189365
20
2.2190300883662673
30
0
11
132.3180537723666
21
-4.0262454934296166
31
0
0
LINE
5
107
100
AcDbEntity
8
0
100
AcDbLine
10
132.3180537723666
20
-4.0262454934296166
30
0
11
129.8180592347955
21
-8.3563630511474418
31
0
0
LINE
5
108
100
AcDbEntity
8
0
100
AcDbLine
10
129.8180592347955
20
-8.3563630511474418
30
0
11
131.55667428275135
21
-9.3601529171018996
31
0
0
LINE
5
109
100
AcDbEntity
8
0
100
AcDbLine
10
131.55667428275135
20
-9.3601529171018996
30
0
11
124.05667428275136
21
-22.350533973868476
31
0
0
LINE
5
110
100
AcDbEntity
8
0
100
AcDbLine
10
124.05667428275136
20
-22.350533973868476
30
0
11
113.66436943733808
21
-16.35053397386848
31
0
0
LINE
5
111
100
AcDbEntity
8
0
100
AcDbLine
10
113.66436943733808
20
-16.35053397386848
30
0
11
121.16436943733808
21
-3.3601529171018996
31
0
0
LINE
5
112
100
AcDbEntity
8
0
100
AcDbLine
10
121.16436943733808
20
-3.3601529171018996
30
0
11
122.89007070448253
21
-4.3564870082286244
31
0
0
LINE
5
113
100
AcDbEntity
8
0
100
AcDbLine
10
122.89007070448253
20
-4.3564870082286244
30
0
11
125.39006524205362
21
-0.026369450510825843
31
0
0
ARC
5
114
100
AcDbEntity
8
0
100
AcDbCircle
10
0
20
-225.20833333333337
30
0
40
257.73937479463871
100
AcDbArc
50
60.889240624137621
51
74.11081450734568
0
LINE
5
115
100
AcDbEntity
8
0
100
AcDbLine
10
70.563288654528833
20
22.683589950954865
30
0
11
69.269196256577487
21
17.853971372111793
31
0
0
LINE
5
116
100
AcDbEntity
8
0
100
AcDbLine
10
69.269196256577487
20
17.853971372111793
30
0
11
71.208369367962788
21
17.334371502931955
31
0
0
LINE
5
117
100
AcDbEntity
8
0
100
AcDbLine
10
71.208369367962788
20
17.334371502931955
30
0
11
67.326083691424969
21
2.8454841085959282
31
0
0
LINE
5
118
100
AcDbEntity
8
0
100
AcDbLine
10
67.326083691424969
20
2.8454841085959282
30
0
11
55.734973775956149
21
5.9513126498261792
31
0
0
LINE
5
119
100
AcDbEntity
8
0
100
AcDbLine
10
55.734973775956149
20
5.9513126498261792
30
0
11
59.617259452493968
21
20.440200044162204
31
0
0
LINE
5
120
100
AcDbEntity
8
0
100
AcDbLine
10
59.617259452493968
20
20.440200044162204
30
0
11
61.542029112957053
21
19.924459568025192
31
0
0
LINE
5
121
100
AcDbEntity
8
0
100
AcDbLine
10
61.542029112957053
20
19.924459568025192
30
0
11
62.836121510908413
21
24.754078146868238
31
0
0
ARC
5
122
100
AcDbEntity
8
0
100
AcDbCircle
10
0
20
-225.20833333333337
30
0
40
257.73937479463876
100
AcDbArc
50
75.889240624137642
51
89.11081450734568
0
LINE
5
123
100
AcDbEntity
8
0
100
AcDbLine
10
3.9997520262330037
20
32.500000484287739
30
0
11
3.9997520262330077
21
27.500011409145515
31
0
0
LINE
5
124
100
AcDbEntity
8
0
100
AcDbLine
10
3.9997520262330077
20
27.500011409145515
30
0
11
6.0073317581419161
21
27.500011409145515
31
0
0
LINE
5
125
100
AcDbEntity
8
0
100
AcDbLine
10
6.0073317581419161
20
27.500011409145515
30
0
11
6.0073317581419161
21
12.500011409145513
31
0
0
LINE
5
126
100
AcDbEntity
8
0
100
AcDbLine
10
6.0073317581419161
20
12.500011409145513
30
0
11
-5.9926682418580945
21
12.500011409145513
31
0
0
LINE
5
127
100
AcDbEntity
8
0
100
AcDbLine
10
-5.9926682418580945
20
12.500011409145513
30
0
11
-5.9926682418580945
21
27.500011409145515
31
0
0
LINE
5
128
100
AcDbEntity
8
0
100
AcDbLine
10
-5.9926682418580945
20
27.500011409145515
30
0
11
-4.0000000596046448
21
27.500011409145515
31
0
0
LINE
5
129
100
AcDbEntity
8
0
100
AcDbLine
10
-4.0000000596046448
20
27.500011409145515
30
0
11
-4.0000000596046448
21
32.500000484287725
31
0
0
ARC
5
130
100
AcDbEntity
8
0
100
AcDbCircle
10
0
20
-225.20833333333337
30
0
40
257.73937479463876
100
AcDbArc
50
90.889240624137628
51
104.11081450734567
0
LINE
5
131
100
AcDbEntity
8
0
100
AcDbLine
10
-62.836361092747865
20
24.754013951107861
30
0
11
-61.542268694796505
21
19.92439537226479
31
0
0
LINE
5
132
100
AcDbEntity
8
0
100
AcDbLine
10
-61.542268694796505
20
19.92439537226479
30
0
11
-59.603095583411196
21
20.443995241444629
31
0
0
LINE
5
133
100
AcDbEntity
8
0
100
AcDbLine
10
-59.603095583411196
20
20.443995241444629
30
0
11
-55.720809906873399
21
5.9551078471086054
31
0
0
LINE
5
134
100
AcDbEntity
8
0
100
AcDbLine
10
-55.720809906873399
20
5.9551078471086054
30
0
11
-67.311919822342219
21
2.8492793058783539
31
0
0
LINE
5
135
100
AcDbEntity
8
0
100
AcDbLine
10
-67.311919822342219
20
2.8492793058783539
30
0
11
-71.194205498880024
21
17.33816670021438
31
0
0
LINE
5
136
100
AcDbEntity
8
0
100
AcDbLine
10
-71.194205498880024
20
17.33816670021438
30
0
11
-69.269435838416939
21
17.853907176351392
31
0
0
LINE
5
137
100
AcDbEntity
8
0
100
AcDbLine
10
-69.269435838416939
20
17.853907176351392
30
0
11
-70.563528236368313
21
22.68352575519442
31
0
0
ARC
5
138
100
AcDbEntity
8
0
100
AcDbCircle
10
0
20
-225.20833333333337
30
0
40
257.73937479463876
100
AcDbArc
50
105.88924062413764
51
119.11081450734567
0
LINE
5
139
100
AcDbEntity
8
0
100
AcDbLine
10
-125.39028004525447
20
-0.026493467196608833
30
0
11
-122.89028550768336
21
-4.356611024914443
31
0
0
LINE
5
140
100
AcDbEntity
8
0
100
AcDbLine
10
-122.89028550768336
20
-4.356611024914443
30
0
11
-121.15167045972751
21
-3.3528211589599843
31
0
0
LINE
5
141
100
AcDbEntity
8
0
100
AcDbLine
10
-121.15167045972751
20
-3.3528211589599843
30
0
11
-113.65167045972751
21
-16.343202215726564
31
0
0
LINE
5
142
100
AcDbEntity
8
0
100
AcDbLine
10
-113.65167045972751
20
-16.343202215726564
30
0
11
-124.04397530514075
21
-22.343202215726564
31
0
0
LINE
5
143
100
AcDbEntity
8
0
100
AcDbLine
10
-124.04397530514075
20
-22.343202215726564
30
0
11
-131.54397530514075
21
-9.3528211589599852
31
0
0
LINE
5
144
100
AcDbEntity
8
0
100
AcDbLine
10
-131.54397530514075
20
-9.3528211589599852
30
0
11
-129.8182740379963
21
-8.3564870678332639
31
0
0
LINE
5
145
100
AcDbEntity
8
0
100
AcDbLine
10
-129.8182740379963
20
-8.3564870678332639
30
0
11
-132.31826857556743
21
-4.0263695101154351
31
0
0
LINE
5
146
100
AcDbEntity
8
0
100
AcDbLine
10
-132.31826857556743
20
-4.0263695101154351
30
0
11
-136.03411811074889
21
2.2113639442570232
31
0
0
ARC
5
147
100
AcDbEntity
8
0
100
AcDbCircle
10
0
20
-225.20833333333337
30
0
40
265.00000000000006
100
AcDbArc
50
92.813481402083795
51
120.8863153135764
0
LINE
5
148
100
AcDbEntity
8
0
100
AcDbLine
10
-13.007467332184177
20
39.472239798889888
30
0
11
-13.007467332184213
21
47.791666561457085
31
0
0
LINE
5
149
100
AcDbEntity
8
0
100
AcDbLine
10
-13.007467332184213
20
47.791666561457085
30
0
11
-2.9956700423863047
21
47.791666561457085
31
0
0
LINE
5
150
100
AcDbEntity
8
0
100
AcDbLine
10
-2.9956700423863047
20
47.791666561457085
30
0
11
-2.9956700423863047
21
59.984267138303906
31
0
0
ARC
5
151
100
AcDbEntity
8
0
100
AcDbCircle
10
0
20
-225.20833333333337
30
0
40
285.20833333333331
100
AcDbArc
50
90.601814134721295
51
121.45140105514714
0
SPLINE
5
152
100
AcDbEntity
8
0
100
AcDbSpline
70
1064
71
5
72
16
73
10
74
0
42
0.000000001
43
0.0000000001
44
0.0000000001
40
0
40
0
40
0
40
0
40
0
40
0
40
0.20000000000000001
40
0.40000000000000002
40
0.60000000000000009
40
0.80000000000000004
40
1
40
1
40
1
40
1
40
1
40
1
10
-148.81462306382318
20
18.098060674612988
30
0
10
-151.67488276688297
20
16.348626709628146
30
0
10
-156.59691720144639
20
12.771024089767787
30
0
10
-161.58665347142372
20
7.168636714835972
30
0
10
-164.09999396396728
20
-0.7010291827285684
30
0
10
-162.55484215048622
20
-10.931825837428846
30
0
10
-158.87998729538791
20
-19.236373093846101
30
0
10
-155.09884024762033
20
-25.455142699990493
30
0
10
-152.13333693767262
20
-29.587049594301448
30
0
10
-150.53934224987819
20
-31.649510555582907
30
0
0
SPLINE
5
153
100
AcDbEntity
8
0
100
AcDbSpline
70
1064
71
5
72
16
73
10
74
0
42
0.000000001
43
0.0000000001
44
0.0000000001
40
0
40
0
40
0
40
0
40
0
40
0
40
0.20000000000000001
40
0.40000000000000002
40
0.60000000000000009
40
0.80000000000000004
40
1
40
1
40
1
40
1
40
1
40
1
10
-150.53934224987819
20
-31.649510555582907
30
0
10
-149.79200100084222
20
-32.616491288137773
30
0
10
-148.00730200818421
20
-34.746971669341249
30
0
10
-144.46091208093787
20
-38.531424466959962
30
0
10
-138.16895670520461
20
-44.337796417326196
30
0
10
-128.11234652830058
20
-50.637644015495155
30
0
10
-118.31911501690499
20
-52.557480536095099
30
0
10
-109.81016610050273
20
-50.833324304789983
30
0
10
-103.56270435997848
20
-48.00998646024005
30
0
10
-100.295149425898
20
-46.17944440453158
30
0
0
ARC
5
154
100
AcDbEntity
8
0
100
AcDbCircle
10
0
20
-225.20833333333337
30
0
40
205.20833333333405
100
AcDbArc
50
60.741679764721894
51
119.25832023527813
0
SPLINE
5
155
100
AcDbEntity
8
0
100
AcDbSpline
70
1064
71
5
72
16
73
10
74
0
42
0.000000001
43
0.0000000001
44
0.0000000001
40
-1
40
-1
40
-1
40
-1
40
-1
40
-1
40
-0.80000000000000004
40
-0.60000000000000009
40
-0.40000000000000002
40
-0.20000000000000001
40
-0
40
-0
40
-0
40
-0
40
-0
40
-0
10
100.29514942589797
20
-46.179444404531566
30
0
10
103.56270435997844
20
-48.009986460240029
30
0
10
109.81016610050253
20
-50.833324304789961
30
0
10
118.31911501690388
20
-52.557480536095021
30
0
10
128.11234652829731
20
-50.637644015495098
30
0
10
138.16895670520026
20
-44.337796417326132
30
0
10
144.46091208093475
20
-38.531424466959962
30
0
10
148.00730200818364
20
-34.746971669341221
30
0
10
149.79200100084219
20
-32.616491288137752
30
0
10
150.53934224987816
20
-31.649510555582889
30
0
0
ENDSEC
0
SECTION
2
OBJECTS
0
DICTIONARY
5
C
100
AcDbDictionary
3
ACAD_GROUP
350
D
3
ACAD_MLINESTYLE
350
17
0
DICTIONARY
5
D
100
AcDbDictionary
0
DICTIONARY
5
1A
330
C
100
AcDbDictionary
0
DICTIONARY
5
17
100
AcDbDictionary
0
ENDSEC
0
EOF
